<?xml version="1.0" encoding="UTF-8"?>
<svg id="Capa_2" data-name="Capa 2" xmlns="http://www.w3.org/2000/svg" viewBox="0 0 1920.5 1085.39">
  <defs>
    <style>
      .cls-1 {
        fill: #f1f2f3;
      }

      .cls-2 {
        isolation: isolate;
      }

      .cls-3 {
        fill: #58a4b0;
      }

      .cls-4 {
        fill: #373f51;
      }
    </style>
  </defs>
  <g id="Capa_1-2" data-name="Capa 1">
    <polygon class="cls-1" points="1920.5 1080.5 .5 1080.5 .5 .5 381.04 .5 1920.5 .5 1920.5 1080.5"/>
    <polyline class="cls-3" points="558.68 0 1574.03 1080 1920 1085.39 1920 0"/>
    <g id="Capa_1-2" data-name="Capa 1-2">
      <g>
        <rect class="cls-4" x="491.57" y="609.52" width="171.21" height="56.79" transform="translate(-173.79 1057.58) rotate(-77.06)"/>
        <rect class="cls-3" x="533.54" y="428.81" width="171.12" height="56.79" transform="translate(34.88 958.2) rotate(-77.06)"/>
        <g>
          <g class="cls-2">
            <path class="cls-4" d="m741.3,380.16l-14.01,60.68h60.68l14.01-60.68h60.68l-38.52,166.86h-60.68l14.01-60.68h-60.68l-14.01,60.68h-60.68l38.52-166.86h60.68Z"/>
            <path class="cls-4" d="m924.09,547.02h-60.68l38.52-166.86h60.68l-38.52,166.86Z"/>
            <path class="cls-4" d="m1048.44,440.84l-12.26,53.09c-.97,4.19,1.64,7.58,5.83,7.58h53.09l3.5-15.17h-45.51l10.51-45.51h106.19l-24.52,106.18h-136.52c-25.13,0-40.8-20.37-35-45.51l14.01-60.68h60.68Zm135.36-60.68l-10.51,45.51h-182.03c5.8-25.13,30.88-45.51,56.01-45.51h136.52Z"/>
            <path class="cls-4" d="m1283.76,380.16l-14.01,60.68h60.68l14.01-60.68h60.68l-38.52,166.86h-60.68l14.01-60.68h-60.68l-14.01,60.68h-60.68l38.52-166.86h60.68Z"/>
          </g>
          <g class="cls-2">
            <path class="cls-3" d="m699.68,560.84h106.19l-10.51,45.51h-106.19l-3.5,15.17h91.02l-10.51,45.51h-91.02l-14.01,60.68h-60.68l38.52-166.86h60.68Z"/>
            <path class="cls-3" d="m839.17,727.71h-60.68l38.52-166.86h60.68l-38.52,166.86Z"/>
            <path class="cls-3" d="m1070.75,560.84l-10.51,45.51h-60.68l-28.02,121.35h-60.68l28.02-121.35h-60.68l10.51-45.51h182.03Z"/>
          </g>
        </g>
      </g>
    </g>
    <polyline class="cls-4" points="0 920.56 496.52 .25 .5 .5"/>
  </g>
</svg>