<?xml version="1.0" encoding="UTF-8"?>
<svg id="Capa_2" data-name="Capa 2" xmlns="http://www.w3.org/2000/svg" viewBox="0 0 1080 1080">
  <defs>
    <style>
      .cls-1 {
        fill: #222;
      }

      .cls-2 {
        fill: #a31800;
      }

      .cls-3 {
        letter-spacing: -.05em;
      }

      .cls-3, .cls-4, .cls-5, .cls-6 {
        font-size: 158.99px;
      }

      .cls-3, .cls-4, .cls-7 {
        font-family: OpenSans-Bold, 'Open Sans';
        font-weight: 700;
      }

      .cls-4 {
        letter-spacing: 0em;
      }

      .cls-5 {
        letter-spacing: -.02em;
      }

      .cls-5, .cls-6 {
        font-family: OpenSans-Regular, 'Open Sans';
      }

      .cls-7 {
        font-size: 130px;
        letter-spacing: -.05em;
      }

      .cls-8 {
        fill: #f2f2f2;
      }

      .cls-6 {
        letter-spacing: 0em;
      }
    </style>
  </defs>
  <g id="fondos_negros" data-name="fondos negros">
    <rect class="cls-1" width="1080" height="1080"/>
  </g>
  <g id="versiones_negativas" data-name="versiones negativas">
    <g id="SIN_TAG" data-name="SIN TAG">
      <text id="REDLINE_sans" data-name="REDLINE sans" class="cls-8" transform="translate(242.13 685.82)"><tspan class="cls-5" x="0" y="0">Re</tspan><tspan class="cls-6" x="179.46" y="0">d</tspan><tspan class="cls-4" x="276.73" y="0">s</tspan><tspan class="cls-7" x="354.96" y="-16">y</tspan><tspan class="cls-3" x="422.41" y="0">nc</tspan></text>
      <g>
        <g id="RedSync">
          <g id="completo">
            <g>
              <g>
                <g>
                  <path class="cls-2" d="m596.89,501.39c7.14-2.77,14.02-5.69,20.59-8.74-16.8,27.65-47.19,46.1-81.89,46.1-18.08,0-34.99-5.01-49.41-13.72,25.12-.6,54.66-5.46,85.32-14.86,8.22-2.52,16.19-5.27,23.86-8.2.51-.2,1.02-.39,1.52-.58Z"/>
                  <path class="cls-2" d="m596.89,480.04c12.08-5.44,23.01-11.41,32.47-17.61-.61,2.95-1.35,5.86-2.23,8.7-.22.75-.46,1.48-.71,2.22-.92,2.78-1.97,5.5-3.14,8.15-8.23,4.27-17.06,8.36-26.38,12.18-8.39,3.44-17.19,6.67-26.32,9.61-1.8.58-3.62,1.16-5.44,1.72-4.26,1.31-8.51,2.52-12.73,3.65-5.69,1.53-11.31,2.9-16.86,4.11-3.82.84-7.61,1.6-11.35,2.29-16.25,2.98-31.67,4.58-45.7,4.82-3.07-2.29-5.99-4.75-8.76-7.38-.74-.69-1.46-1.39-2.16-2.11-1.58-1.59-3.11-3.23-4.55-4.93,8.77,1.17,18.69,1.48,29.46.95h.02c2.65-.14,5.34-.33,8.09-.57,5.86-.51,11.92-1.27,18.15-2.26,5.48-.89,11.09-1.96,16.79-3.22h.01c5.53-1.23,11.16-2.64,16.85-4.23,2.57-.72,5.14-1.47,7.72-2.26,3.54-1.09,7.03-2.22,10.45-3.4,9.25-3.18,18.05-6.67,26.32-10.41Z"/>
                  <path class="cls-2" d="m631.2,437.88c-1.01-18.94-7.51-36.43-17.96-50.88-1.69-2.34-3.48-4.6-5.37-6.77-17.56-20.18-43.43-32.94-72.27-32.94-47.72,0-87.29,34.92-94.54,80.61h0c-.78,4.94-1.19,9.97-1.19,15.12,0,1.48.03,2.95.1,4.41h0c.02.49.05.97.09,1.45.18,3.3.56,6.56,1.09,9.77,2.26,13.79,7.47,26.59,14.97,37.73.43.63,1.1,1.06,1.85,1.19,5.05.82,10.51,1.34,16.34,1.57,8.14.3,16.96.02,26.3-.86,5.86-.56,11.94-1.36,18.16-2.4,3.51-.59,7.07-1.26,10.68-2.01,2.03-.4,4.07-.85,6.12-1.31,2.43-.56,4.87-1.14,7.33-1.77,3.15-.79,6.32-1.61,9.51-2.52,2-.58,4-1.19,5.99-1.81,4.14-1.27,8.2-2.6,12.18-3.99,9.26-3.25,18.06-6.81,26.32-10.6,11.73-5.4,22.34-11.26,31.53-17.35.7-.47,1.39-.94,2.07-1.41.21-.14.35-.37.37-.63.31-3.11.47-6.27.47-9.46,0-1.73-.05-3.43-.14-5.14Zm-112.43,50.17v-43.68h16.8v40.03l-7.87,1.85c-3.01.65-5.98,1.26-8.93,1.8Z"/>
                  <g id="PILARES">
                    <g id="CENTRAL">
                      <path class="cls-8" d="m535.58,444.08v40.34c.22-.07.46-.13.72-.17.12-.03.23-.06.35-.08,3.05-.76,6.13-1.58,9.21-2.43,2.18-.62,4.37-1.25,6.56-1.91v-35.75h-16.83Z"/>
                      <polygon class="cls-8" points="552.43 375.06 552.43 444.08 535.6 444.08 535.6 368 536.64 368.43 552.43 375.06"/>
                      <polygon class="cls-8" points="518.77 375.06 518.77 444.08 535.6 444.08 535.6 367.99 518.77 375.06"/>
                      <path class="cls-8" d="m518.87,443.63l-.11,44.42c2.61-.48,5.29-1.01,8.03-1.61,3.28-.72,5.72-1.25,8.77-2.04l.14-40.77h-16.83Z"/>
                      <rect class="cls-8" x="474.3" y="443.31" width="26.31" height="1.32"/>
                    </g>
                    <g id="IZQUIERDO">
                      <polygon class="cls-8" points="474.3 388.41 474.3 443.9 500.62 443.9 500.62 377.49 474.3 388.41"/>
                      <path class="cls-8" d="m500.61,443.91v46.87c-2.22.27-4.4.49-6.56.68-2.76.25-5.44.43-8.09.57h-.02c-4,.2-7.88.28-11.63.25v-48.37h26.3Z"/>
                    </g>
                    <g id="DERECHO">
                      <polygon class="cls-8" points="596.89 388.41 596.89 443.9 570.58 443.9 570.58 377.49 596.89 388.41"/>
                      <path class="cls-8" d="m596.89,443.91v18.69c-2.15,1.05-4.33,2.07-6.56,3.07-6.29,2.85-12.89,5.56-19.75,8.08v-29.84h26.32Z"/>
                    </g>
                  </g>
                </g>
                <path class="cls-2" d="m689.2,406.59c-.21-.68-.46-1.36-.74-2.03-.26-.63-.54-1.24-.86-1.84-1.12-2.19-2.6-4.22-4.43-6.11-.85-.88-1.77-1.73-2.76-2.54-1.99-1.64-4.25-3.14-6.78-4.49-8.27-4.45-19.32-7.43-32.41-8.86-2.39-.27-4.84-.48-7.37-.64-.84-.05-1.68-.1-2.54-.14-.44-.02-.88-.05-1.33-.07-2.36-.09-4.78-.15-7.25-.15-2.36-.02-11.59.4-14.86.51-.21.01-.39.02-.55.02l4.71,6.8c.38-.02.78-.03,1.21-.05,1.08-.04,2.32-.06,3.71-.07,1.13,0,2.75,0,4.76.08,1.26.06,4.93.25,9.79,1.03.26.04.52.08.79.13,0,0,1.94.33,3.69.7,1.2.25,2.38.52,3.52.82,9.87,2.48,17.56,6.37,22.35,11.59,1.65,1.79,2.96,3.74,3.89,5.84.34.73.62,1.51.87,2.29,4.77,15.57-10.22,35.29-37.25,53.02-9.45,6.2-20.38,12.17-32.46,17.61-8.27,3.75-17.07,7.24-26.32,10.41-3.42,1.18-6.91,2.32-10.45,3.4-2.58.8-5.15,1.54-7.72,2.27-5.68,1.58-11.31,3-16.84,4.22h-.01c-5.7,1.26-11.32,2.34-16.79,3.22-6.24,1-12.3,1.76-18.16,2.27-2.75.24-5.44.43-8.09.57h-.02c-10.76.54-20.69.22-29.46-.94-10.15-1.35-18.76-3.82-25.3-7.41-.66-.36-1.31-.73-1.93-1.12-1.04-.64-2.02-1.32-2.93-2.03-4.09-3.15-6.92-6.93-8.26-11.31-.51-1.66-.79-3.36-.86-5.11-.21-5.29,1.55-10.96,5.03-16.77,1.61-2.7,3.6-5.42,5.91-8.16.32-.37.64-.75.97-1.12.73-.83,1.49-1.66,2.29-2.49.54-.58,1.12-1.17,1.71-1.76l.18-.18v-9.18c-.58.43-1.15.87-1.72,1.3-.62.48-1.24.97-1.84,1.45-1.32,1.06-2.59,2.11-3.83,3.16-.18.15-.36.31-.54.46h-.01c-16.99,14.59-26.5,29.53-25.66,42.52.12,1.82.44,3.6.98,5.32,1.85,6.05,6.13,11.12,12.4,15.16,12.66,8.15,33.44,12.13,58.88,11.68,14.02-.24,29.45-1.84,45.7-4.82,3.73-.69,7.53-1.44,11.35-2.29,5.54-1.21,11.17-2.58,16.85-4.1,4.22-1.14,8.47-2.35,12.73-3.66,1.82-.56,3.64-1.13,5.44-1.72,9.13-2.94,17.92-6.16,26.32-9.6,9.32-3.82,18.15-7.91,26.38-12.18,21.31-11.07,38.66-23.4,50.34-35.67.88-.91,1.72-1.82,2.51-2.73,2.2-2.48,4.16-4.95,5.86-7.4.03-.03.05-.07.06-.1h0c2.34-3.36,4.19-6.68,5.54-9.94,1.71-4.1,2.61-8.11,2.63-11.96.01-2.44-.32-4.81-1.03-7.11Z"/>
              </g>
              <g>
                <path class="cls-8" d="m536.64,368.43v115.74c-.35.08-.7.18-1.04.25h-.02s-.01.01-.01.01v-116.42h.03s1.04.42,1.04.42Z"/>
                <polygon class="cls-2" points="535.71 484.41 535.66 492.52 535.39 492.52 535.39 492.51 535.56 484.43 535.71 484.41"/>
                <rect class="cls-8" x="518.77" y="443.8" width="33.65" height=".57"/>
                <rect id="arreglo_pilares" data-name="arreglo pilares" class="cls-8" x="570.58" y="443.45" width="26.31" height=".97"/>
              </g>
            </g>
          </g>
        </g>
        <g>
          <rect class="cls-2" x="535.39" y="492.51" width=".27" height=".01"/>
          <path class="cls-2" d="m542.9,490.79c-2.46.63-4.9,1.21-7.33,1.77-2.05.46-4.09.91-6.12,1.31l-1.75-7.62,7.87-1.85h.01l1.06-.24.31-.07.09-.02,4.09-.94,1.77,7.66Z"/>
        </g>
      </g>
    </g>
  </g>
</svg>