<?xml version="1.0" encoding="UTF-8"?>
<svg id="Capa_2" data-name="Capa 2" xmlns="http://www.w3.org/2000/svg" viewBox="0 0 1920 1080">
  <defs>
    <style>
      .cls-1 {
        fill: #fff;
      }

      .cls-2 {
        fill: #e0c054;
      }

      .cls-3 {
        fill: #3a3939;
      }
    </style>
  </defs>
  <g id="Capa_2-2" data-name="Capa 2">
    <rect class="cls-2" width="1920" height="1080"/>
    <circle class="cls-1" cx="959.5" cy="539.5" r="400"/>
    <g id="iso">
      <g>
        <path class="cls-2" d="m995.94,800.63c63.44,0,121.47-23.02,166.21-61.14-52.26,52.92-124.82,85.68-205.05,85.68-113.46,0-211.63-65.59-258.64-160.92h0c-.74-1.53-1.48-3.04-2.2-4.57l.19.08.32.14h0c2.34,1.08,4.72,2.13,7.13,3.15l-8.91-8.88-.09-.09-2.1-2.1c-.23-.54-.47-1.08-.7-1.63-.59-1.35-1.15-2.71-1.72-4.08-13.87-33.69-21.5-70.62-21.5-109.32,0-11.97.74-23.77,2.16-35.34,16.84-12.27,38.66-22.62,64.36-30.71,5.22-1.64,10.57-3.21,16.08-4.63-7.81,24.54-12.04,50.71-12.04,77.85,0,127.54,93.11,233.36,215.06,253.18,13.49,2.2,27.34,3.34,41.45,3.34Z"/>
        <path class="cls-2" d="m796.53,381.02c.56-.12,1.13-.23,1.72-.36-14.6,17.65-26.87,37.27-36.36,58.41-.69,1.53-1.36,3.07-2.02,4.61-2.53,5.9-4.84,11.92-6.91,18.07-.53.13-1.07.27-1.6.41-5.51,1.42-10.87,2.98-16.08,4.63-25.33,7.98-46.91,18.15-63.64,30.21,1.03-7.6,2.4-15.12,4.04-22.52.35-1.6.72-3.18,1.09-4.77,4.18-17.59,10-34.53,17.25-50.66.86-.49,1.76-1.01,2.64-1.49,28.31-15.81,62.23-28.35,99.87-36.53h0Z"/>
        <path class="cls-2" d="m1221.24,421.39c-35.2-64.5-97.3-112.21-171.22-128.06-17.43-3.75-35.53-5.72-54.08-5.72-60.62,0-116.36,21.05-160.26,56.25-2.04,1.63-4.06,3.3-6.06,5-9.68,8.22-18.74,17.18-27.09,26.77-1.63.33-3.27.66-4.89,1.01-.59.13-1.15.25-1.7.38-37.34,8.11-71.02,20.5-99.19,36.13,4.93-10.41,10.49-20.43,16.64-30.1,1.29-2.03,2.61-4.05,3.95-6.06,12.74-19.08,27.69-36.54,44.5-52.03.05-.04.09-.08.15-.13,51.32-47.26,119.86-76.13,195.12-76.13,79.78,0,151.98,32.4,204.17,84.78,1.19,1.19,2.36,2.38,3.52,3.6.28.29.56.59.83.88,4.31,4.51,8.46,9.14,12.47,13.92h.01c17.49,20.88,32.07,44.24,43.14,69.52h0Z"/>
        <path class="cls-3" d="m932.66,264.94c-65.96-.48-126.45,22.97-173.24,62.24.82-.81,1.63-1.62,2.47-2.44.05-.04.09-.08.15-.13,54.5-53.08,129.12-85.48,211.17-84.91,86.97.68,165,38.35,219.27,97.92.02.02.04.04.06.06l-19.84-2.43-4.64-.58h-.04l-.33-.05h-.02l-.4-.05c.26.05.52.09.76.15.65.13,1.28.28,1.94.45.05-.04.05,0,.08,0,.35.16.69.34,1.01.52h.02c.15.08.29.15.43.22l.15,1.47.23,2.27v.09h.06c15.4,7.59,29.15,15.84,40.99,24.64.86.63,1.69,1.27,2.53,1.92.04.02.06.05.09.07.75,1.06,1.49,2.11,2.23,3.18,9.55,13.82,17.95,28.48,25.04,43.85h0c.06.12.11.22.15.33-2.58-1.23-5.2-2.43-7.87-3.58l11.4,11.56.06.06c3.13,7.28,7.32,19.55,10.08,27.88,2.11,6.39,1.75,13.33-1.02,19.47-9.74,21.59-30.02,41.2-58.31,57.76-.05.02-.09.06-.14.08v-.05c-1.69-102.21-61.05-190.63-147.11-233.82-35.35-17.74-75.2-27.86-117.41-28.17v.02Z"/>
        <path class="cls-3" d="m1212.67,364.31h0c-11.76-8.71-25.39-16.85-40.63-24.37h-.04l-.25-2.41-.15-1.41c-.48-.23-.95-.52-1.47-.75-.05,0-.05-.05-.08,0-.69-.19-1.37-.35-2.06-.47-.45-.08-.46-.08-.02,0h-.01c-.21-.06-.41-.09-.62-.13l5.29.65,19.8,2.43.19.02c1.63,1.79,3.23,3.58,4.82,5.37.48.61.98,1.19,1.49,1.76.13.14.26.29.39.43.9,1.1,1.87,2.27,2.78,3.38.83.99,1.67,1.99,2.47,3.02l.04.04c.45.58.89,1.14,1.35,1.7.25.33.51.65.75.96h.01c.05.07.09.14.14.2.39.46.75.93,1.12,1.4.04.05.07.08.11.13.06.08.13.15.2.25.05.08.12.16.18.25h.01c.53.7,1.07,1.41,1.62,2.13,1.9,2.54,3.77,5.09,5.57,7.67-.99-.76-1.99-1.52-3-2.26h.01Z"/>
        <path class="cls-3" d="m1172.01,339.94c-3.62-1.2-7.32-2.3-11.07-3.35-1-1.32-2.03-2.55-3.07-3.78,3.18.6,6.37,1.23,9.47,1.95,1.43.4,2.87.88,4.25,1.35l.4,3.82h.01Z"/>
        <polygon class="cls-3" points="1243.1 413.91 1246.64 421.94 1239.81 422.1 1232 410.04 1235.91 407.73 1243.1 413.91"/>
        <path class="cls-2" d="m705.77,664.86l-8.32-3.64h-.01l-.38-.18-.22-.09-.54-1.17-1.94-4.3h-.01l-.89-2-.67-1.49,2.46,2.43h0l.11.12s.01,0,.01.01h.01l10.37,10.32h.02Z"/>
        <path class="cls-3" d="m1270.41,541.93c-.12,12.45-.95,24.67-2.5,36.69-1.23,9.55-2.95,18.95-5.05,28.18-4.53,20.01-11.15,39.24-19.5,57.46-5.89,12.97-12.7,25.39-20.37,37.25-53.69,83.53-147.74,138.57-254.36,137.77-120.08-.89-223.14-72.34-270.17-174.69-.04-.05-.06-.09-.07-.15-.69-1.48-1.36-2.97-2.01-4.48-.33-.73-.65-1.46-.96-2.2.42.79.85,1.56,1.28,2.34,0,0,0,.01.01.01h0c44.99,81.9,131.78,137.67,231.84,138.42,8.72.06,17.35-.29,25.86-1.05h0c55.86-4.98,106.84-27.21,147.49-61.36,11.85-9.92,22.84-20.9,32.83-32.79,16.44-19.55,30.09-41.47,40.36-65.19,1.56-3.51,3.01-7.04,4.37-10.62h0c.12-.29.22-.56.33-.85.87-2.24,1.69-4.48,2.44-6.72h0s.01-.06.02-.08c.63-1.72,1.2-3.42,1.75-5.13,2.61-7.93,4.82-16.01,6.64-24.24.25-.19.49-.38.74-.56,10.07-7.78,19.39-15.86,27.87-24.23.67-.72,1.39-1.43,2.07-2.1,17.16-17.33,30.6-35.76,39.6-54.48.04-.04.04-.07.04-.07.42-.87.83-1.73,1.23-2.6-.65.79-1.3,1.56-1.97,2.34,0,0,0,.05-.05.08-2.37,2.75-4.95,5.51-7.65,8.21h-.01c-.07.14-.15.28-.23.41-8.47,14.22-19.46,28.1-32.59,41.39l-2.07,2.07c-7.73,7.65-16.2,15.13-25.35,22.29-.05.04-.11.08-.15.12,0-.02.01-.05.01-.07,1.75-8.8,3.07-17.72,3.87-26.79v-.04c.15-1.42.28-2.81.35-4.23v-.04c.48-6.05.72-12.14.76-18.3v-2.36c33.4-19.44,55.62-43.13,62.51-69.32.12-.42.43-.88.48-.67,2.38,8.71,4.34,17.54,5.85,26.58.01.08.04.15.05.23.34,1.72.6,3.43.9,5.18.05.35.09.69.14,1.03s.11.67.14,1c.01.05.01.08.02.13.18,1.13.33,2.29.47,3.42.01.06.01.13.02.19v.05c1.4,10.07,2.23,20.29,2.55,30.64v.18c.08,2.01.12,4.02.12,6.03v.94h0c.02,1.6.02,3.16.02,4.76h.02Z"/>
        <path class="cls-2" d="m1171.61,336.12c-1.4-.48-2.82-.95-4.25-1.35.92.16,1.79.35,2.7.6.04-.04.04,0,.08,0,.52.23,1,.52,1.47.75h0Z"/>
        <path class="cls-2" d="m1054.8,420.72c-13.79,0-26.08,6.43-34.04,16.44-.93,1.15-1.79,2.36-2.58,3.61-3.56,5.56-5.89,11.98-6.6,18.89-.14,1.33-.22,2.69-.23,4.05v.48c0,24,19.46,43.48,43.46,43.48s43.47-19.48,43.47-43.48-19.46-43.47-43.47-43.47Zm0,62.97c-10.96,0-19.84-8.91-19.84-19.84s8.88-19.85,19.84-19.85,19.85,8.88,19.85,19.85-8.88,19.84-19.85,19.84Z"/>
        <path class="cls-2" d="m1041.96,441.46c-2.84.36-5.49,1.2-7.79,2.41-4.73,2.49-8,6.6-8.52,11.51-.14,1.29-.08,2.58.16,3.84.25,1.28.69,2.54,1.3,3.72-.43-.09-.86-.19-1.29-.28-4.71-1.06-9.46-2.06-14.25-3.01-3.45-.68-6.93-1.34-10.44-1.97-16.02-2.89-32.58-5.26-49.53-7.07-38.01-4.02-74.74-4.75-108.91-2.57-32.64,2.07-62.91,6.73-89.74,13.71-.53.13-1.07.27-1.6.41-5.51,1.42-10.87,2.98-16.08,4.63-25.33,7.98-46.91,18.15-63.64,30.21-.25.16-.48.33-.72.51-22.11,16.05-35.59,35.34-37.87,56.99-.36,3.49-.43,6.97-.22,10.46,1.75,28.55,22.76,56.71,57.54,81.32.75.53,1.52,1.07,2.29,1.6l3.02,6.7c-.23-.13-.45-.26-.67-.38h-.01s-.04-.04-.06-.05h0l-1.55-.88c-21.7-12.35-39.71-25.99-53.13-40.47-.01-.01-.02-.02-.04-.04-8.54-9.21-15.24-18.76-19.82-28.56-.02-.02-.04-.06-.05-.08-.02-.05-.05-.09-.07-.14l-.11-.21s-.01-.02-.02-.04c-2.06-4.42-3.68-8.88-4.85-13.37-.01-.01-.01-.04-.01-.06-1.03-3.92-1.73-7.87-2.06-11.84-.06-.6-.09-1.19-.13-1.79-.13-2.24-.15-4.48-.06-6.72,1.32-31.13,24.38-58.5,62.53-79.58.4-.22.8-.45,1.21-.66,21.96-11.97,48.84-21.9,79.36-29.28,1.2-.29,2.4-.59,3.62-.86.72-.16,1.42-.33,2.14-.49,33.74-7.73,71.72-12.43,112.35-13.48,21.08-.54,42.91-.13,65.2,1.36,24.18,1.64,47.72,4.41,70.28,8.22,3.71.63,7.39,1.28,11.04,1.97,7.18,1.33,14.25,2.76,21.19,4.3h-.02Z"/>
        <path class="cls-2" d="m1032.17,353.14c-4.38-19.34-21.69-33.78-42.37-33.78-15.14,0-29.3,8.47-36.96,20.63-.21.32-.43.66-.63,1-.36.62-.92,1.56-1.55,2.8-1.96,3.9-4.64,10.69-4.32,19.04.08,1.81.27,3.67.65,5.57.25,1.34.55,2.69.94,4.04,4.69,16.73,19.62,33.85,41.88,33.85,16.59,0,31-9.27,38.32-22.96,3.28-6.12,5.15-13.09,5.15-20.5,0-3.34-.38-6.59-1.1-9.69h0Zm-28.98,23.96c-3.52,3.23-8.21,5.22-13.38,5.22-7.73,0-14.44-4.43-17.69-10.87-.29-.59-.56-1.19-.8-1.8-.08-.18-.14-.35-.2-.53-.12-.32-.22-.63-.32-.95-.07-.25-.14-.49-.21-.75v-.04s-.02-.05-.01-.07c-.05-.18-.09-.36-.13-.54-.06-.2-.09-.4-.13-.6-.04-.13-.06-.26-.07-.39-.02-.14-.05-.27-.06-.41-.04-.23-.07-.47-.09-.7-.04-.22-.06-.45-.06-.67-.02-.16-.04-.33-.04-.51-.02-.34-.04-.68-.04-1.03,0-.38.01-.75.04-1.13.05-.95.18-1.89.36-2.81.06-.31.13-.61.2-.92.08-.33.18-.66.28-.99.02-.09.05-.18.08-.27.02-.09.06-.19.09-.28.06-.19.12-.36.19-.54.12-.32.25-.62.38-.93.13-.28.26-.58.4-.86.07-.15.15-.32.23-.47.16-.32.34-.62.52-.92.18-.31.35-.59.55-.87.21-.33.45-.66.68-.96.21-.29.43-.58.68-.85.25-.29.49-.58.75-.85s.53-.54.8-.8c.27-.26.55-.51.85-.75.04-.04.07-.06.11-.09.25-.2.49-.4.75-.59,0-.01,0-.02.02-.02.16-.12.33-.23.49-.35.18-.13.35-.25.53-.35.61-.41,1.23-.76,1.88-1.09.25-.13.49-.25.75-.36s.53-.23.8-.34c.18-.08.36-.15.55-.21.35-.13.7-.26,1.07-.36,1.84-.59,3.77-.88,5.8-.88,4.31,0,8.32,1.37,11.55,3.72,5.02,3.6,8.29,9.47,8.29,16.12,0,5.8-2.49,11.02-6.46,14.64h0Z"/>
        <path class="cls-2" d="m984.01,343.5c-.36.11-.72.23-1.07.36-.19.06-.38.13-.55.21-.27.11-.54.22-.8.34s-.51.23-.75.36c-.65.33-1.27.68-1.88,1.09-.18.11-.35.22-.53.35-.16.12-.33.23-.49.35-.01,0-.01.01-.02.02-.26.19-.51.39-.75.59-.04.04-.07.06-.11.09-.29.23-.58.48-.85.75-.28.26-.55.53-.8.8-.27.28-.52.55-.75.85-.25.27-.47.55-.68.85-.23.31-.47.63-.68.96-.2.28-.38.56-.55.87-.18.29-.35.6-.52.92-.08.15-.16.32-.23.47-.14.28-.27.58-.4.86-.13.31-.26.61-.38.93-.07.18-.13.35-.19.54-.04.09-.07.19-.09.28-.04.09-.06.18-.08.27-.11.33-.2.66-.28.99-.07.31-.14.61-.2.92-.19.92-.32,1.86-.36,2.81-.02.38-.04.75-.04,1.13,0,.35.01.69.04,1.03,0,.18.01.34.04.51,0,.22.02.45.06.67.02.23.05.47.09.7.01.14.04.27.06.41.01.13.04.26.07.39.04.2.07.4.13.6.02.18.07.36.13.54,0,.02,0,.05.01.07.06.26.13.53.21.79.09.32.2.63.32.95.06.18.12.35.2.53.23.61.51,1.21.8,1.8-.32-.05-.62-.09-.94-.13-7.94-1.17-16-2.16-24.19-2.91-15.5-1.47-31.4-2.22-47.63-2.22-33.95,0-66.56,3.32-96.83,9.46-1.63.33-3.27.66-4.89,1.01-.59.13-1.15.25-1.7.38-37.34,8.11-71.02,20.5-99.19,36.13h0c-.23.13-.46.26-.69.39-.88.48-1.79,1-2.64,1.49-52.79,30.19-85.41,71.92-85.41,118.04,0,5.69.49,11.31,1.47,16.86.01.08.02.15.04.22.98,5.45,2.4,10.83,4.26,16.12h0c.47,1.35.98,2.69,1.52,4.02,0,.02,0,.05.01.06,11.23,28.2,34.94,53.68,67.62,74.43.01.01.04.02.06.05,2.96,1.88,6,3.71,9.12,5.52.49.28.99.58,1.49.86.42.98.87,1.92,1.32,2.87h0s.02.06.02.07h0c.23.52.48,1.03.73,1.54l-1.52-.7h-.01c-.68-.32-1.35-.63-2.02-.95-8.21-3.9-16.04-8.07-23.44-12.49-43.25-25.79-71.94-59.98-78.68-98.78-.73-4.16-1.2-8.38-1.41-12.64-2.96-59.92,46.38-115.37,124.18-151.05.15-.08.27-.13.42-.2,1.37-.62,2.75-1.25,4.14-1.87,31.45-13.93,67.38-24.68,106.23-31.24,1.82-.33,3.63-.62,5.46-.88,2.21-.35,4.43-.68,6.66-1.01,16.15-2.35,32.78-3.98,49.78-4.82,23.07-1.13,45.64-.76,67.39.95,10.6.86,21.01,2.01,31.16,3.5h.01Z"/>
        <path class="cls-3" d="m976.86,673.3c-.68-1.49-1.45-2.93-2.28-4.31-7.61-12.59-21.44-21.01-37.23-21.01-24,0-43.46,19.46-43.46,43.46s19.46,43.47,43.46,43.47c20.34,0,37.41-13.96,42.17-32.83.38-1.53.68-3.09.89-4.69.27-1.95.41-3.94.41-5.96,0-6.49-1.42-12.62-3.96-18.14Zm-39.51,37.63c-10.96,0-19.84-8.89-19.84-19.85s8.88-19.84,19.84-19.84,19.85,8.88,19.85,19.84-8.89,19.85-19.85,19.85h0Z"/>
        <path class="cls-3" d="m1171.61,336.12c-1.4-.48-2.82-.95-4.25-1.35.92.16,1.79.35,2.7.6.04-.04.04,0,.08,0,.52.23,1,.52,1.47.75h0Z"/>
        <path class="cls-3" d="m1270.67,536.62c-.07.12-.14.22-.21.34h0c-13.95,22.85-33.61,45.11-57.94,65.59-.12.08-.2.15-.32.28-9.83,8.28-20.47,16.25-31.77,23.9-.29.2-.59.4-.89.59h0c-18.72,12.55-39.3,24.12-61.47,34.31-1.59.75-3.21,1.47-4.84,2.19-16.21,7.25-33.22,13.79-50.94,19.47-21.14,6.74-42.19,11.97-62.84,15.66-6.68,1.21-13.33,2.27-19.93,3.15-3.31.45-6.61.86-9.89,1.21,2.07-1.3,3.85-3.01,5.28-4.96v-.04s.09-.13.13-.19c3.2-4.53,4.41-10.53,2.84-16.39-.27-1.03-.63-2.06-1.07-3.01-.63-1.52-1.49-2.93-2.49-4.18-.23-.29-.47-.58-.72-.86.09-.01.2-.01.29-.04.36-.04.72-.09,1.09-.12.62-.07,1.25-.14,1.88-.22,6.91-.79,13.86-1.75,20.88-2.91,14.74-2.42,29.7-5.63,44.76-9.6,33.22-8.83,64.15-20.81,91.83-35.05.52-.28.99-.52,1.47-.79,20.15-10.43,38.54-22.09,54.92-34.65.25-.19.49-.38.74-.56,10.07-7.78,19.39-15.86,27.87-24.23.67-.72,1.39-1.43,2.07-2.1,17.16-17.33,30.6-35.76,39.6-54.48.04-.04.04-.07.04-.07.42-.87.83-1.73,1.23-2.6,1.1-2.38,2.13-4.78,3.09-7.2.25-.63.49-1.27.74-1.92.35-.92.69-1.83,1.02-2.76.04-.09.07-.19.11-.28,7.61-21.61,9.15-43.46,3.61-64.43-.33-1.28-.69-2.56-1.1-3.84-.35-1.16-.74-2.31-1.16-3.45-3.09-8.86-7.41-17.19-12.86-24.94-9.06-12.92-21.19-24.27-35.86-33.86-3.64-2.38-7.44-4.66-11.37-6.83h-.01c-.41-.23-.8-.45-1.21-.67-.02-.01-.04-.02-.06-.04-.58-.73-1.14-1.45-1.72-2.17h0s-.05-.08-.08-.12l-1.7-2.11c-.41-.51-.82-1-1.25-1.49-.9-1.12-1.86-2.27-2.77-3.37-.63-.72-1.27-1.43-1.86-2.19.11.04.19.07.29.11h.01c.27.09.54.2.81.29.68.25,1.36.49,2.04.75,43.41,16.01,75.13,42.98,87.7,79.29.32.88.63,1.79.92,2.7.25.8.49,1.59.73,2.38,9.89,33.96,2.06,70.93-19.64,106.49h-.01Z"/>
        <path class="cls-3" d="m915.23,584.7s-.01-.07-.01-.11c-.07-.69-.2-1.4-.34-2.08-.12-.6-.25-1.2-.39-1.8-4.53-19.11-21.73-33.35-42.27-33.35-24.01,0-43.47,19.46-43.47,43.47s19.46,43.47,43.47,43.47c17.42,0,32.45-10.23,39.36-25.04.26-.56.51-1.15.75-1.74.29-.68.56-1.37.81-2.07,1.66-4.57,2.54-9.49,2.54-14.63,0-2.07-.14-4.14-.45-6.13h0Zm-55.71,21.02c-2.43-2.01-4.36-4.61-5.6-7.57-1.01-2.37-1.55-4.97-1.55-7.68s.59-5.49,1.64-7.91c.52-1.17,1.13-2.3,1.83-3.32,3.6-5.22,9.6-8.62,16.38-8.62s12.55,3.28,16.15,8.33c.9,1.25,1.63,2.58,2.24,4.05.01.04.04.08.05.12.36.92.66,1.86.88,2.83.01.02.01.05.01.07.21.87.34,1.75.41,2.66.02.27.05.54.06.81.02.33.04.66.04.99,0,.36-.01.73-.04,1.08-.01.26-.04.51-.06.76-.01.25-.05.48-.08.73-.04.34-.09.69-.16,1.03-.04.23-.08.47-.14.7-.06.27-.13.54-.2.81-.02.13-.06.27-.11.4-.04.14-.07.27-.12.4-.09.32-.2.62-.32.93-.11.31-.22.61-.35.9-.02.06-.05.12-.08.18-.12.28-.25.56-.39.83-.13.27-.27.54-.42.8-.12.22-.25.45-.38.66-.28.48-.59.94-.92,1.39-.16.25-.35.49-.55.73-.36.48-.76.93-1.19,1.36-.07.08-.14.16-.22.23-.06.07-.12.13-.18.19-.31.31-.62.6-.95.88-.27.23-.53.46-.81.67-.26.2-.52.39-.78.55-.04.05-.06.07-.09.07h-.01c-.22.15-.45.31-.67.43-.14.11-.28.19-.42.26-.14.08-.28.15-.42.23-2.89,1.69-6.24,2.62-9.79,2.62-4.83,0-9.26-1.74-12.7-4.59h0Z"/>
        <path class="cls-3" d="m1283.59,452.64c-.13,16.07-5.65,31.63-15.84,46.3-.15.22-.31.46-.47.68v.04c-1.55,2.21-3.23,4.43-5.02,6.61-.65.79-1.3,1.56-1.97,2.34,0,0,0,.05-.05.08-2.37,2.75-4.95,5.51-7.65,8.21h-.01c-.28.31-.55.58-.85.86-14.38,14.05-33.2,27.06-55.68,38.54-.13.07-.26.13-.39.2v.04c-16.65,8.48-35.32,16.17-55.62,22.9-.16.08-.28.12-.43.15-36.76,12.12-78.88,21.08-124.45,25.91-2.02.23-4.05.43-6.16.63-20.47,1.99-41.6,3.21-63.25,3.49-11.54.12-22.93,0-34.19-.35h-.06c-9.97-.32-19.83-.83-29.52-1.55.14-.08.29-.16.43-.26.14-.07.28-.15.42-.26.22-.12.45-.26.67-.43h.01s.06-.04.09-.07c.26-.16.52-.35.78-.55.28-.21.54-.43.81-.67.33-.28.65-.58.95-.88.06-.06.12-.12.18-.19.06-.06.13-.13.19-.21l.02-.02c.41-.43.81-.88,1.2-1.36.19-.23.38-.48.55-.73.33-.45.63-.9.92-1.39.14-.21.27-.43.38-.66.15-.26.29-.53.42-.8.14-.27.27-.55.39-.83.04-.06.06-.12.08-.18.13-.29.25-.6.35-.9.12-.31.22-.61.32-.93.05-.13.08-.26.12-.4.05-.13.08-.27.11-.4.08-.27.15-.54.2-.81.06-.23.11-.47.14-.7.07-.34.13-.69.16-1.03.04-.25.07-.48.08-.73.02-.26.05-.51.06-.76.01-.33.02-.66.02-.99,0-.36-.01-.72-.02-1.08-.01-.27-.04-.54-.06-.81-.08-.8-.21-1.59-.4-2.34v-.02s-.02-.09-.04-.14c.04-.04,0-.08,0-.08-.25-1.02-.52-2.02-.92-2.97h.05c.19.01.4.05.59.05h.04c7.86.67,15.79,1.19,23.88,1.54h.06c5.22.28,10.49.48,15.84.6,39.97,1.07,78.47-1.19,114.03-6.21.67-.08,1.32-.2,1.95-.28,42.31-6.1,80.62-16.12,112.76-29.23.99-.4,2.06-.79,3.02-1.27,12.31-5.15,23.67-10.73,33.96-16.72.13-.07.26-.15.39-.22,33.4-19.44,55.62-43.13,62.51-69.32.12-.42.22-.86.32-1.29l1.08-8.94v-.09l.9-7.37v-.04c-.02-3.31-.29-6.63-.8-9.88v-.12c-3.52-23.14-18.92-45.11-43.45-64.52-.87-.69-1.75-1.37-2.64-2.06-.31-.45-.62-.89-.94-1.34-.42-.6-.85-1.19-1.27-1.77-.07-.11-.15-.21-.23-.32h0c-1.02-1.42-2.06-2.81-3.11-4.22-1.08-1.39-2.1-2.77-3.22-4.12-.75-.95-1.52-1.89-2.27-2.84.47.25.94.51,1.4.76h0c.42.22.81.45,1.22.66h.01c3.11,1.73,6.14,3.47,9.09,5.24,7.2,4.32,13.91,8.83,20.08,13.53.04,0,.04.04.08.08,3.23,2.46,6.32,4.95,9.26,7.5l.02.02h0c11.94,10.34,21.31,21.35,27.82,32.94h0v.02c4.99,8.91,8.28,18.14,9.72,27.63,0,.12.04.28.04.43.4,2.7.65,5.39.72,8.12.02.86.04,1.72.02,2.57h.05Z"/>
        <ellipse class="cls-3" cx="1169.5" cy="335.87" rx="3.2" ry="2.35"/>
        <polygon class="cls-3" points="1192.62 337.87 1215.66 366.57 1196.07 364.41 1164.03 342.07 1165.27 333.91 1192.62 337.87"/>
      </g>
    </g>
  </g>
</svg>